<svg width="14" height="14" viewBox="0 0 14 14" fill="none" xmlns="http://www.w3.org/2000/svg">
<path d="M7 0C8.85652 0 10.637 0.737498 11.9497 2.05025C13.2625 3.36301 14 5.14348 14 7C14 8.85652 13.2625 10.637 11.9497 11.9497C10.637 13.2625 8.85652 14 7 14C5.14348 14 3.36301 13.2625 2.05025 11.9497C0.737498 10.637 0 8.85652 0 7C0 5.14348 0.737498 3.36301 2.05025 2.05025C3.36301 0.737498 5.14348 0 7 0V0ZM3.9375 6.5625C3.82147 6.5625 3.71019 6.60859 3.62814 6.69064C3.54609 6.77269 3.5 6.88397 3.5 7C3.5 7.11603 3.54609 7.22731 3.62814 7.30936C3.71019 7.39141 3.82147 7.4375 3.9375 7.4375H9.00638L7.12775 9.31525C7.08707 9.35593 7.05481 9.40422 7.03279 9.45736C7.01078 9.51051 6.99945 9.56747 6.99945 9.625C6.99945 9.68253 7.01078 9.73949 7.03279 9.79264C7.05481 9.84578 7.08707 9.89407 7.12775 9.93475C7.16843 9.97543 7.21672 10.0077 7.26986 10.0297C7.32301 10.0517 7.37997 10.0631 7.4375 10.0631C7.49503 10.0631 7.55199 10.0517 7.60514 10.0297C7.65828 10.0077 7.70657 9.97543 7.74725 9.93475L10.3722 7.30975C10.413 7.26911 10.4453 7.22083 10.4674 7.16768C10.4894 7.11453 10.5008 7.05755 10.5008 7C10.5008 6.94245 10.4894 6.88547 10.4674 6.83232C10.4453 6.77917 10.413 6.73089 10.3722 6.69025L7.74725 4.06525C7.70657 4.02457 7.65828 3.99231 7.60514 3.97029C7.55199 3.94828 7.49503 3.93695 7.4375 3.93695C7.37997 3.93695 7.32301 3.94828 7.26986 3.97029C7.21672 3.99231 7.16843 4.02457 7.12775 4.06525C7.08707 4.10593 7.05481 4.15422 7.03279 4.20736C7.01078 4.26051 6.99945 4.31747 6.99945 4.375C6.99945 4.43253 7.01078 4.48949 7.03279 4.54264C7.05481 4.59578 7.08707 4.64407 7.12775 4.68475L9.00638 6.5625H3.9375Z" fill="#C8B6E2"/>
</svg>
