<svg width="20" height="20" viewBox="0 0 20 20" fill="none" xmlns="http://www.w3.org/2000/svg">
<path d="M6.66666 17.5H13.3333" stroke="#0C092A" stroke-width="2" stroke-linecap="round" stroke-linejoin="round"/>
<path d="M10 14.1667V17.5" stroke="#0C092A" stroke-width="2" stroke-linecap="round" stroke-linejoin="round"/>
<path d="M5.83334 3.33334H14.1667" stroke="#0C092A" stroke-width="2" stroke-linecap="round" stroke-linejoin="round"/>
<path d="M14.1667 3.33334V10C14.1667 11.1051 13.7277 12.1649 12.9463 12.9463C12.1649 13.7277 11.1051 14.1667 10 14.1667C8.89493 14.1667 7.83513 13.7277 7.05372 12.9463C6.27232 12.1649 5.83334 11.1051 5.83334 10V3.33334" stroke="#0C092A" stroke-width="2" stroke-linecap="round" stroke-linejoin="round"/>
<path d="M4.16667 9.16668C5.08714 9.16668 5.83333 8.42049 5.83333 7.50001C5.83333 6.57954 5.08714 5.83334 4.16667 5.83334C3.24619 5.83334 2.5 6.57954 2.5 7.50001C2.5 8.42049 3.24619 9.16668 4.16667 9.16668Z" stroke="#0C092A" stroke-width="2" stroke-linecap="round" stroke-linejoin="round"/>
<path d="M15.8333 9.16668C16.7538 9.16668 17.5 8.42049 17.5 7.50001C17.5 6.57954 16.7538 5.83334 15.8333 5.83334C14.9129 5.83334 14.1667 6.57954 14.1667 7.50001C14.1667 8.42049 14.9129 9.16668 15.8333 9.16668Z" stroke="#0C092A" stroke-width="2" stroke-linecap="round" stroke-linejoin="round"/>
</svg>
