<svg width="20" height="20" viewBox="0 0 20 20" fill="none" xmlns="http://www.w3.org/2000/svg">
<path d="M10.8484 0.751612C10.6234 0.526647 10.3182 0.400269 10 0.400269C9.68181 0.400269 9.37664 0.526647 9.1516 0.751612L0.751603 9.15161C0.533014 9.37793 0.41206 9.68106 0.414795 9.99569C0.417529 10.3103 0.543731 10.6113 0.766221 10.8338C0.988711 11.0563 1.28969 11.1825 1.60432 11.1852C1.91896 11.188 2.22208 11.067 2.4484 10.8484L2.8 10.4968V18.4C2.8 18.7183 2.92643 19.0235 3.15148 19.2485C3.37652 19.4736 3.68174 19.6 4 19.6H6.4C6.71826 19.6 7.02349 19.4736 7.24853 19.2485C7.47357 19.0235 7.6 18.7183 7.6 18.4V16C7.6 15.6818 7.72643 15.3765 7.95148 15.1515C8.17652 14.9264 8.48174 14.8 8.8 14.8H11.2C11.5183 14.8 11.8235 14.9264 12.0485 15.1515C12.2736 15.3765 12.4 15.6818 12.4 16V18.4C12.4 18.7183 12.5264 19.0235 12.7515 19.2485C12.9765 19.4736 13.2817 19.6 13.6 19.6H16C16.3183 19.6 16.6235 19.4736 16.8485 19.2485C17.0736 19.0235 17.2 18.7183 17.2 18.4V10.4968L17.5516 10.8484C17.7779 11.067 18.081 11.188 18.3957 11.1852C18.7103 11.1825 19.0113 11.0563 19.2338 10.8338C19.4563 10.6113 19.5825 10.3103 19.5852 9.99569C19.5879 9.68106 19.467 9.37793 19.2484 9.15161L10.8484 0.751612Z" fill="#495C83"/>
</svg>
